<?xml version="1.0" standalone="no"?>
<!DOCTYPE svg PUBLIC "-//W3C//DTD SVG 20010904//EN"
 "http://www.w3.org/TR/2001/REC-SVG-20010904/DTD/svg10.dtd">
<svg version="1.0" xmlns="http://www.w3.org/2000/svg"
 width="612.000000pt" height="612.000000pt" viewBox="0 0 612.000000 612.000000"
 preserveAspectRatio="xMidYMid meet">
<metadata>
Created by potrace 1.14, written by Peter Selinger 2001-2017
</metadata>
<g transform="translate(0.000000,612.000000) scale(0.100000,-0.100000)"
fill="#000000" stroke="none">
<path d="M0 5740 l0 -380 378 0 c208 0 381 2 383 4 2 2 3 173 1 380 l-2 376
-380 0 -380 0 0 -380z"/>
<path d="M1530 5740 l0 -380 -370 0 c-203 0 -373 0 -377 0 -5 0 -10 -172 -13
-382 l-5 -383 -382 -3 -383 -2 0 -380 0 -380 380 0 380 0 1 373 c1 204 1 375
0 380 0 4 172 7 384 7 l385 0 0 -380 0 -380 -365 -1 c-201 -1 -371 -2 -377 -3
-10 -1 -14 -87 -18 -381 l-5 -380 -382 -3 -383 -2 0 -380 0 -380 380 0 380 0
1 353 c1 193 0 364 -1 380 l-2 27 386 0 386 0 0 -380 0 -380 383 0 382 0 -2
368 c-1 202 -3 373 -3 380 0 9 -83 12 -380 12 l-380 0 0 385 0 384 377 1 c207
0 378 2 380 3 2 2 3 173 4 380 l1 377 384 0 384 0 0 -380 0 -380 383 -2 382
-3 3 -382 2 -383 -385 0 -385 0 -2 383 -3 382 -377 2 -378 2 0 -384 0 -385
380 0 380 0 0 -378 c0 -208 2 -381 4 -383 2 -2 175 -3 383 -1 l378 2 -3 318
c-2 174 -1 345 3 380 l7 62 379 0 379 0 0 -378 c0 -208 2 -381 4 -383 2 -2
176 -3 385 -1 l381 2 0 368 c-1 202 0 373 0 380 0 9 83 12 380 12 l380 0 0
385 0 385 -380 2 -380 3 -1 375 -1 375 381 3 381 2 0 385 0 385 -380 2 -381 3
1 378 0 377 -385 0 -385 0 -2 -380 -3 -381 -377 1 -378 0 0 -385 0 -385 -385
0 -385 0 0 385 0 385 378 0 c208 0 381 2 383 4 2 2 3 173 1 380 l-2 376 -380
0 -380 0 -2 -380 -3 -381 -375 -2 -375 -2 -5 -380 -5 -380 -382 -3 -383 -2 0
385 0 385 379 0 c243 0 381 4 383 10 2 5 2 176 0 380 l-2 370 -380 0 -380 0 0
-380z m3828 -767 l2 -383 -385 0 -385 0 0 -379 c0 -243 -4 -381 -10 -383 -5
-1 -178 -2 -384 0 l-375 2 0 358 c0 197 2 368 6 380 l5 22 379 0 379 0 0 385
0 384 383 -2 382 -2 3 -382z m0 -1530 l2 -383 -385 0 -385 0 0 385 0 386 383
-3 382 -3 3 -382z"/>
<path d="M769 1929 c-1 -203 -2 -375 -3 -381 -1 -10 -86 -14 -383 -16 l-383
-2 0 -380 0 -380 363 -1 c199 -1 367 -2 372 -4 6 -1 16 -3 23 -3 9 -2 12 -85
12 -382 l0 -380 380 0 380 0 2 383 3 382 365 2 c200 2 372 0 382 -3 17 -5 18
-30 18 -385 l0 -379 380 0 380 0 2 383 3 382 367 2 c201 2 374 0 382 -3 14 -5
16 -50 16 -385 l0 -379 380 0 380 0 2 383 3 382 380 2 380 2 2 378 2 378 380
3 381 2 0 380 0 380 -380 0 -380 0 0 -380 0 -380 -385 0 -385 0 0 380 0 380
-380 0 -380 0 0 -380 0 -380 380 0 380 0 0 -385 0 -384 -382 2 -383 2 -2 380
-2 380 -381 3 -380 2 0 380 0 380 -382 0 -383 0 3 -380 2 -380 380 0 380 0 0
-385 0 -385 -382 2 -383 3 -2 375 c-2 206 -3 378 -3 383 0 4 -171 7 -380 7
l-380 0 0 380 0 380 -362 1 c-200 0 -371 2 -380 4 -17 3 -18 -20 -19 -366z
m761 -784 l0 -386 -382 3 -383 3 -3 383 -3 382 385 0 386 0 0 -385z"/>
<path d="M5360 380 l0 -380 380 0 380 0 0 380 0 380 -380 0 -380 0 0 -380z"/>
</g>
</svg>
